<?xml version="1.0" standalone="no"?>
<!DOCTYPE svg PUBLIC "-//W3C//DTD SVG 20010904//EN"
 "http://www.w3.org/TR/2001/REC-SVG-20010904/DTD/svg10.dtd">
<svg version="1.0" xmlns="http://www.w3.org/2000/svg"
 width="512.000000pt" height="512.000000pt" viewBox="0 0 512.000000 512.000000"
 preserveAspectRatio="xMidYMid meet">

<g transform="translate(0.000000,512.000000) scale(0.100000,-0.100000)"
fill="#f3f3f3" stroke="none">
<path d="M2400 5110 c-226 -28 -436 -105 -630 -230 -68 -44 -122 -64 -588
-213 -282 -91 -515 -167 -517 -169 -2 -1 -152 -427 -334 -945 l-332 -943 17
-32 c52 -103 167 -242 274 -332 283 -238 637 -356 1074 -356 l111 0 -60 -41
c-201 -136 -462 -219 -691 -219 l-94 0 0 -150 0 -150 98 0 c379 0 780 166
1053 435 43 43 81 76 83 74 11 -11 58 -182 76 -272 16 -80 160 -1478 160
-1549 0 -17 29 -18 465 -18 436 0 465 1 465 18 1 66 153 1522 166 1582 9 41
27 110 41 153 l24 78 89 -85 c108 -102 249 -198 390 -265 203 -96 376 -139
598 -148 l142 -6 0 152 0 151 -93 0 c-176 0 -375 49 -542 133 -77 38 -189 109
-198 124 -3 5 72 8 167 9 405 2 740 118 1016 350 107 90 222 229 274 331 l16
33 -331 942 c-182 519 -332 945 -334 947 -2 2 -235 77 -517 168 -476 153 -518
168 -587 214 -147 99 -358 182 -538 214 -110 20 -315 27 -413 15z m320 -304
c427 -65 769 -344 915 -746 24 -67 205 -897 205 -939 0 -9 -126 -160 -280
-336 -154 -176 -305 -354 -335 -397 -172 -238 -290 -524 -338 -818 -9 -52 -42
-359 -74 -683 l-57 -587 -191 2 -190 3 -62 618 c-33 340 -71 665 -82 723 -55
274 -177 545 -344 767 -48 63 -414 489 -580 675 -21 22 -21 24 -3 115 68 362
150 762 168 817 152 472 581 788 1083 798 39 1 113 -5 165 -12z m-1420 -421
c0 -3 -16 -37 -36 -76 -61 -122 -101 -264 -164 -584 -33 -170 -78 -398 -99
-504 l-39 -195 302 -345 c354 -406 386 -444 386 -458 0 -32 -456 -38 -605 -9
-262 51 -485 170 -647 345 -38 41 -68 77 -68 81 0 18 563 1607 573 1617 7 6
93 36 192 68 98 31 181 58 184 60 6 7 21 6 21 0z m2728 -61 c97 -31 182 -61
189 -68 6 -6 138 -372 293 -813 l282 -803 -31 -38 c-110 -140 -293 -265 -489
-336 -157 -56 -257 -70 -492 -69 -118 0 -237 4 -264 9 l-49 9 48 60 c44 53
572 661 631 725 l23 25 -104 500 c-113 539 -134 620 -201 764 -24 52 -44 96
-44 99 0 2 7 2 15 -2 9 -3 95 -31 193 -62z"/>
</g>
</svg>
