<?xml version="1.0" encoding="utf-8"?>
<!-- Generator: Adobe Illustrator 22.1.0, SVG Export Plug-In . SVG Version: 6.00 Build 0)  -->
<svg version="1.1" id="Слой_1" xmlns="http://www.w3.org/2000/svg" xmlns:xlink="http://www.w3.org/1999/xlink" x="0px" y="0px"
	 viewBox="0 0 512 512" style="enable-background:new 0 0 512 512;" xml:space="preserve">
<style type="text/css">
	.st0{fill:#F3F3F3;}
</style>
<g transform="translate(0.000000,512.000000) scale(0.100000,-0.100000)">
	<path class="st0" d="M2416.9,5104.8c-294.5-51.5-418.9-111.9-717.8-262.4c-104.9-52.8-365.4-124.6-580.5-214.8
		c-130.3-54.6-316.3,75.3-474.9-202.4c-158.6-277.7-220.4-592-353.4-966.4c-60.5-170.4-214.2-610.2-286.8-822.1
		c-15.9-33.7-2.6-50.2,4-59.9c83.7-122.9,162.9-242.3,277.5-331.3c303.2-235.6,652.6-344.8,1032.3-389.4c24.1-2.8,83,4.6,111.1,6
		c-22.2-17.1-50.5-35.1-74-51.6c-313.8-219.4-589.6-497.9-964.5-605.3c-38.5-11-61.7-12-98.3-21.7c10.5-49.1,18.8-99,28.2-148.5
		c9.4-49.4,17.8-99.3,28.2-148.3c31.1,3.3,69.1,17.4,100.4,24.1c484.4,103,938.4,533.4,1306,826.1c58.3,46.4,68.6,133.4,89.1,88
		c112.9-249.8,32.8-13.2,120.9-393c78.3-337.7,116.4-960,153.4-1370.5c8.9-98.3,375.8-63.4,456.2-55.2c80.4,8.3,438-66.2,450.1,49.9
		c47,450.6,78.6,1054.1,159,1447.2c55,268.8,17.6,75,55.2,243.6c17,76.1,12.5,29.7,27,95c27.8-37.3,53.7-63,87.1-90.8
		c161.5-134.6,303-227.1,485.5-348.5c262.4-174.6,538.9-382.6,834.2-513.1c47.2-20.9,95.2-23.4,142.3-40.2
		c13.6,48.9,26.2,97.3,39.7,146s26.9,97.7,36.5,147.3c-37,12.8-69,19.8-108.1,34.6c-296,112-577.5,329.4-824.3,505.6
		c-113.4,80.9-225.7,89.4-266.1,201.6c-13.4,37.4,91.1,5.4,167,11.5c323.7,26,706.8,117.3,974.2,352.8
		c103.7,91.3,205.2,205,277.8,331c5.8,10.1,20.6,26.7,3.9,60.5c-73.2,211.6-225.4,651.5-286.7,821.5
		c-135.1,374.7-196.4,688.1-355.6,967.3c-159.2,279.2-340.9,145-474,200.9c-224.5,94.5-464.4,153.3-585.1,216.3
		c-258,134.7-363.9,184-597.5,240.3C2673.3,5121.1,2544.6,5127.2,2416.9,5104.8z M2722.3,4810c517.4-199.6,730.9-249.8,944.7-859.7
		c35.6-101.5,241.9-650.2,143.6-842c-21.1-41.1-170.4-281.3-252.9-337.5c-82.4-56.2-262.5-276.8-301.7-342.9
		c-220-370.3-287.5-499.1-380.1-952.5c-16.4-80.3-50.8-443.1-61.9-622.8c-5-81.4-41.9-418.7-50.6-530.7
		c-65.7-24.1-127.5-13.6-193.3-12.7c-65.7,0.8-127.3-8.5-192.5,18c-10.7,121.2-50.3,468.5-56.9,558.9
		c-14.6,199-40.2,559.9-68.7,660.2c-134.6,474.8-161,538.4-432,952.4c-77.3,118-368.4,434.7-509.6,578
		c-17.2,17.5-13.7,120.3-9.6,154.9c16.3,137.5,112.5,614.9,139.8,691.6c233.8,656.7,510.2,778,1124.4,899.7
		C2612.6,4832.3,2659.5,4834.2,2722.3,4810z M1284.2,4371.6c8.1-40.1-15.7-27.4-36.3-86.7c-64.1-184.6-118.8-367.2-158.7-590.7
		c-21.2-118.7-67.3-334.9-92.3-475c-11.5-64.4-35-134.5-28.5-207.7c42.2-50.2,238.1-268.4,257.3-290.9
		c90-105.8,424.8-379.8,380-458.8c-102.3-180.6-410.6-70.1-560.8-42.8c-264.1,47.9-461.4,150.2-646,342.2
		c-43.3,45-83.6-10.9-61.6,103.4c98.8,514.6,299.2,1069.7,539,1538.7c156.3,305.7,77.9,26,174.2,89.9
		c96.2,63.9,153.2,63.2,181.6,70.7C1304.6,4383.1,1276.1,4411.6,1284.2,4371.6z M4056.5,4302.7c92.1-60.1,52.7,152.5,185.3-102.9
		c132.6-255.3,190.2-506.6,301-832.9c50.5-148.5,183.9-519,245.8-702.9c10.5-33.6-9.4-49.1-19.8-59.2
		c-150.5-147.1-299.3-261.1-495.5-334.3c-156.9-58.5-323.5-62.7-489.2-71.1c-83.2-4.2-178.3,3.3-255.6,8.2
		c-35.1,2.2-32.5,9.2-64.8,4.7c42.9,48.7,19.1,22.9,71.1,84.6c186.4,221.4,409.6,475,610.3,697.3c19.6,21.7,18.1,15.5,27.4,45.1
		c-20.7,94.5-81.6,376-93.6,442.5c-51.9,287.2-110,542.4-196.1,775.9c-31,84.2-44.6,59.9-47.1,111.8c-2.6,51.9-30.8,19.4,29.3,2
		C3925.1,4354.2,3964.4,4362.9,4056.5,4302.7z"/>
</g>
</svg>
