<?xml version="1.0" standalone="no"?>
<!DOCTYPE svg PUBLIC "-//W3C//DTD SVG 20010904//EN"
 "http://www.w3.org/TR/2001/REC-SVG-20010904/DTD/svg10.dtd">
<svg version="1.0" xmlns="http://www.w3.org/2000/svg"
 width="347.000000pt" height="324.000000pt" viewBox="0 0 347.000000 324.000000"
 preserveAspectRatio="xMidYMid meet">

<g transform="translate(0.000000,324.000000) scale(0.100000,-0.100000)"
fill="#fff" stroke="none">
<path d="M1350 2852 c-53 -21 -86 -65 -96 -129 -8 -52 9 -291 26 -373 7 -30
19 -63 27 -72 15 -16 14 -20 -3 -40 -45 -55 -52 -57 -107 -36 -28 11 -82 38
-119 60 -63 37 -73 40 -121 35 -112 -12 -179 -72 -203 -180 -41 -181 -50 -243
-54 -345 0 -9 -9 -7 -30 8 -48 34 -58 17 -12 -20 27 -21 40 -39 37 -49 -5 -17
22 -35 148 -98 72 -37 179 -61 282 -63 33 -1 105 -4 160 -7 99 -5 100 -6 137
-43 42 -42 49 -83 26 -147 -11 -29 -20 -36 -74 -53 -35 -10 -82 -29 -106 -41
-40 -20 -52 -21 -168 -15 -69 3 -136 8 -150 11 -43 7 -154 41 -177 53 -29 16
-41 15 -19 -1 16 -11 13 -15 -31 -35 -72 -34 -83 -41 -191 -120 -127 -92 -279
-244 -348 -347 -30 -44 -68 -96 -87 -115 -18 -19 -47 -54 -65 -76 l-32 -42 0
-286 0 -286 814 0 815 0 4 22 4 23 2 -22 1 -23 915 0 915 0 0 361 0 362 -56
84 c-60 90 -293 337 -397 420 -154 123 -252 178 -304 170 -18 -3 -35 -1 -38 4
-7 10 -45 12 -69 3 -14 -5 -13 -9 4 -31 18 -23 18 -27 4 -57 -64 -125 -270
-269 -452 -316 -113 -28 -122 -28 -116 12 3 18 1 61 -4 96 -8 59 -8 62 13 62
11 0 25 4 30 9 6 5 37 16 69 26 60 17 207 86 279 132 22 14 63 32 91 40 49 15
50 16 24 25 -16 6 -34 6 -43 1 -9 -5 -39 -6 -68 -1 -29 4 -87 13 -129 19 -73
11 -77 13 -87 42 -26 73 3 149 76 201 35 24 54 30 118 34 41 2 77 8 80 12 2 4
-11 36 -30 71 -36 69 -69 158 -62 166 3 2 19 -3 36 -11 16 -9 47 -16 69 -16
21 0 42 -4 48 -9 20 -20 87 -52 158 -75 93 -32 136 -22 127 28 -1 4 -2 23 -3
42 -1 21 -6 34 -15 34 -7 0 -12 3 -11 8 4 13 -23 142 -34 167 -20 44 -41 29
-26 -18 5 -18 18 -70 28 -117 10 -47 21 -97 25 -112 5 -21 4 -28 -8 -28 -8 0
-17 7 -21 15 -3 8 -12 15 -21 15 -8 0 -15 4 -15 9 0 5 -10 13 -22 16 -13 4
-57 22 -98 40 -41 18 -95 36 -119 40 -30 5 -55 17 -74 36 -16 16 -32 29 -35
29 -7 0 -11 7 -57 98 l-27 54 21 48 c12 27 21 57 21 67 1 10 14 29 30 42 53
44 203 38 252 -11 16 -16 23 -17 31 -8 9 10 9 14 0 17 -7 3 -13 11 -13 19 0 8
-19 24 -42 34 -47 21 -78 25 -78 11 0 -5 8 -11 18 -13 9 -2 -4 -5 -30 -5 -25
-1 -57 -4 -70 -8 -22 -6 -22 -5 2 9 14 8 29 12 35 9 5 -3 5 0 -1 6 -9 10 -20
9 -49 -3 -21 -9 -41 -16 -46 -16 -8 0 -6 37 7 101 7 39 -16 122 -39 141 -12 9
-21 28 -22 44 0 33 -44 61 -156 98 -163 54 -249 53 -328 -5 -23 -16 -44 -29
-49 -29 -4 0 -13 14 -19 30 -15 39 -73 66 -185 85 -108 19 -192 18 -248 -3z
m830 -104 c52 -16 102 -37 110 -45 13 -14 13 -15 -5 -10 -11 3 -38 13 -60 21
-22 8 -53 15 -70 14 -20 0 -23 -2 -10 -5 32 -7 128 -53 149 -71 29 -26 48 -81
47 -140 0 -62 -8 -92 -23 -92 -5 0 -8 7 -4 15 3 8 2 15 -3 15 -5 0 -11 20 -14
45 -7 49 -27 93 -52 119 -10 9 -12 16 -5 16 22 0 -3 22 -44 40 -61 26 -113 34
-113 16 0 -8 6 -12 13 -9 6 2 15 0 19 -6 8 -14 7 -14 -94 4 -93 17 -161 33
-161 40 0 18 58 56 98 63 64 12 111 5 222 -30z m-700 20 c14 -1 -9 -4 -50 -7
-63 -5 -75 -9 -74 -23 1 -10 -2 -18 -6 -18 -4 0 -11 -12 -14 -26 -7 -26 -19
-189 -18 -236 1 -15 -3 -30 -8 -33 -13 -8 -13 209 -1 233 6 9 13 34 16 54 7
47 43 71 95 63 19 -3 46 -6 60 -7z m83 -15 c-7 -2 -19 -2 -25 0 -7 3 -2 5 12
5 14 0 19 -2 13 -5z m109 -15 c-8 -8 -23 -8 -54 -1 l-43 11 55 1 c41 1 51 -2
42 -11z m485 -84 c-3 -3 -12 -4 -19 -1 -8 3 -5 6 6 6 11 1 17 -2 13 -5z m209
-240 c-3 -8 -10 -14 -15 -14 -7 0 -7 9 -1 26 6 14 11 37 12 52 1 18 3 14 5
-12 3 -21 2 -44 -1 -52z m4 -34 c0 -5 -7 -10 -16 -10 -8 0 -12 5 -9 10 3 6 10
10 16 10 5 0 9 -4 9 -10z m-1267 -174 c93 -46 117 -66 80 -66 -14 0 -15 -2 -4
-9 8 -5 9 -11 3 -15 -6 -3 -13 -29 -17 -56 -4 -28 -11 -50 -16 -50 -5 0 -9 -5
-9 -11 0 -17 -40 -49 -69 -55 -82 -17 -179 -75 -205 -123 -5 -9 -22 -29 -38
-45 -15 -17 -28 -34 -28 -39 0 -6 -7 -15 -17 -22 -22 -17 -65 19 -58 49 5 24
14 89 21 156 23 209 63 313 125 325 12 2 24 7 28 11 18 18 114 -5 204 -50z
m302 -6 c47 -14 124 -24 230 -30 88 -5 230 -19 315 -30 85 -11 184 -20 219
-20 l64 0 -99 -48 c-54 -27 -130 -59 -169 -71 -133 -43 -151 -54 -102 -67 13
-3 48 -33 78 -66 30 -33 69 -77 87 -97 73 -80 87 -139 53 -233 -30 -84 -54
-210 -50 -261 3 -31 0 -48 -8 -51 -7 -3 -10 -13 -6 -22 4 -11 3 -15 -5 -10
-11 7 -10 -93 2 -112 3 -6 1 -12 -4 -14 -15 -5 -21 -226 -9 -292 6 -28 12 -87
15 -131 6 -100 21 -169 47 -220 12 -22 20 -46 19 -53 -2 -6 4 -12 11 -12 21 0
87 -76 89 -103 6 -88 -16 -128 -107 -190 -93 -63 -167 -58 -228 16 -70 86 -74
119 -20 173 60 60 120 93 184 100 71 8 78 24 10 24 -62 0 -129 -35 -199 -103
-39 -38 -52 -47 -50 -32 2 18 -12 88 -58 280 -8 33 -16 71 -19 85 -2 14 -7 41
-11 60 -4 19 -6 43 -5 52 1 10 -4 28 -11 40 -7 13 -16 50 -20 83 -22 175 -46
292 -67 330 -6 10 -9 56 -15 245 -1 52 -7 104 -13 115 -6 11 -16 57 -24 103
-18 115 -12 128 87 188 11 7 16 15 12 19 -4 4 -19 0 -34 -9 -36 -25 -41 -13
-16 39 16 33 28 45 44 45 23 1 58 21 58 34 0 3 -21 6 -47 6 -69 1 -197 32
-280 68 -39 18 -81 32 -92 32 -45 0 -12 107 43 141 17 10 31 19 31 19 0 0 32
-9 70 -20z m228 -7 c-24 -2 -62 -2 -85 0 -24 2 -5 4 42 4 47 0 66 -2 43 -4z
m686 -191 c7 -24 10 -46 7 -49 -5 -5 47 -79 65 -93 15 -12 49 -91 48 -112 0
-13 -3 -17 -6 -10 -3 9 -9 10 -18 2 -15 -12 -165 7 -165 21 0 5 -25 6 -57 3
-41 -5 -54 -4 -49 4 5 8 -1 12 -16 12 -28 0 -53 17 -62 44 -5 13 -2 17 9 13 8
-4 20 0 28 7 7 8 31 17 54 20 29 5 52 19 83 51 l43 44 -7 67 c-7 68 -7 68 12
43 10 -13 24 -44 31 -67z m-99 -1 c0 -49 -29 -73 -111 -91 -48 -11 -60 -10
-87 4 -53 28 -39 69 29 83 30 6 33 5 21 -9 -17 -22 0 -31 24 -13 11 8 14 14 7
15 -21 0 -15 17 10 25 25 9 76 22 95 24 8 1 12 -13 12 -38z m-792 -42 c24 -10
32 -19 28 -31 -3 -13 2 -18 15 -18 10 0 18 4 17 9 -3 10 0 11 37 11 59 0 -4
-73 -71 -84 -60 -9 -128 27 -132 71 -4 40 28 77 55 64 10 -4 33 -14 51 -22z
m-162 3 c6 -4 14 -24 18 -44 4 -21 11 -38 16 -38 6 0 10 -11 10 -24 0 -25 16
-43 40 -44 17 -1 100 -14 100 -16 -4 -31 -60 -136 -73 -136 -4 0 -35 -13 -68
-30 -85 -42 -165 -54 -227 -34 -11 3 -10 7 2 20 9 8 16 19 16 23 0 3 15 22 34
42 46 47 96 148 96 192 0 20 5 39 10 42 7 4 7 12 0 24 -13 26 2 39 26 23z
m-74 -88 c-7 -38 -40 -100 -76 -143 -20 -24 -48 -64 -62 -87 -20 -35 -30 -43
-47 -40 -45 10 -122 19 -134 17 -7 -1 -13 3 -13 9 0 5 -9 10 -19 10 -11 0 -27
7 -35 16 -17 16 -22 39 -7 30 11 -7 70 57 105 113 28 43 80 87 111 92 10 2 55
3 100 3 73 -1 80 -3 77 -20z m1062 -145 l49 2 -34 -41 c-19 -23 -42 -51 -52
-64 -24 -29 -38 -92 -31 -133 5 -24 2 -33 -7 -34 -83 -6 -86 -6 -81 13 2 10 8
18 13 18 5 0 4 9 -3 19 -10 16 -8 25 12 55 17 24 27 31 33 23 5 -7 6 13 3 47
-2 32 -10 64 -15 69 -6 6 -11 17 -11 25 0 11 8 13 38 6 20 -4 59 -6 86 -5z
m-784 -60 c0 -11 12 -40 26 -65 20 -35 28 -64 34 -137 8 -92 4 -106 -27 -107
-14 0 -16 24 -4 55 16 40 -51 141 -110 165 l-28 12 47 48 c53 54 62 58 62 29z
m698 -281 c-5 -16 -48 -24 -48 -9 0 8 17 16 43 20 5 0 7 -5 5 -11z m237 -27
c3 -5 -8 -19 -25 -31 -26 -19 -31 -19 -36 -6 -10 26 4 46 30 46 14 0 27 -4 31
-9z m-887 -49 c2 -7 -6 -12 -17 -12 -21 0 -27 11 -14 24 9 9 26 2 31 -12z
m766 -8 c23 -22 20 -31 -16 -43 -24 -9 -34 -8 -40 1 -13 21 -5 41 22 51 8 3
16 6 17 6 1 1 9 -6 17 -15z m-117 -59 c7 -20 6 -21 -39 -29 -29 -5 -38 -4 -38
7 0 34 65 53 77 22z m-849 -17 c17 -17 15 -28 -6 -28 -24 0 -32 8 -25 26 6 17
15 18 31 2z m-342 -37 c9 7 29 9 55 5 23 -4 38 -3 35 2 -3 5 31 12 77 15 79 5
83 4 122 -24 54 -40 156 -71 228 -70 l57 1 -6 -38 c-3 -21 -1 -57 6 -81 8 -30
8 -47 1 -54 -25 -25 -231 -5 -308 29 -17 8 -34 14 -39 14 -4 0 -58 29 -119 65
-62 36 -117 65 -123 65 -5 0 -18 12 -27 26 -17 26 -17 27 4 21 17 -4 19 -2 12
11 -4 10 -6 24 -2 32 4 11 6 8 9 -8 3 -19 6 -21 18 -11z m442 -8 c4 -25 -16
-30 -49 -13 -32 18 -24 42 14 38 24 -2 33 -8 35 -25z m-498 7 c0 -5 -7 -7 -15
-4 -8 4 -15 8 -15 10 0 2 7 4 15 4 8 0 15 -4 15 -10z m600 -15 c19 -23 5 -42
-30 -43 -38 -1 -52 24 -25 44 24 18 40 18 55 -1z m-586 -132 c10 -30 -5 -29
-28 3 -15 22 -16 28 -5 35 14 9 22 1 33 -38z m1771 0 c-3 -10 -11 -38 -16 -63
-12 -55 -110 -179 -161 -203 -19 -9 -65 -43 -102 -76 -38 -34 -78 -61 -88 -61
-27 0 -148 121 -148 148 0 11 -11 29 -25 40 -14 11 -25 25 -25 30 0 21 20 22
37 2 10 -11 23 -20 30 -20 7 0 13 -5 13 -12 0 -6 3 -9 6 -5 3 3 15 -3 26 -13
32 -30 64 -32 113 -10 25 11 45 26 45 33 0 15 39 41 48 32 4 -3 0 -10 -8 -15
-22 -14 -7 -12 31 4 42 18 131 91 122 100 -4 4 3 9 16 13 16 4 19 8 10 14 -10
6 -6 14 15 34 15 14 32 23 37 20 5 -4 9 1 9 9 0 9 5 16 11 16 6 0 8 -7 4 -17z
m-90 -23 c-3 -5 -10 -10 -16 -10 -5 0 -9 5 -9 10 0 6 7 10 16 10 8 0 12 -4 9
-10z m-1645 -69 c0 -9 -7 -3 -15 13 -19 36 -19 47 0 22 8 -11 15 -27 15 -35z
m126 -138 c35 -70 85 -104 147 -102 26 2 50 6 53 10 2 4 14 5 25 2 16 -4 20
-2 17 8 -3 8 -15 13 -27 12 -11 -2 -21 1 -21 6 0 4 -19 14 -42 21 -24 8 -52
18 -63 23 -19 10 -19 10 0 18 11 4 46 5 78 2 49 -5 60 -3 73 13 11 14 17 15
20 7 3 -7 10 -13 15 -13 6 0 7 4 4 10 -4 6 2 7 17 1 15 -6 22 -15 20 -27 -4
-23 -43 -55 -56 -47 -6 4 -6 -2 -2 -13 15 -38 10 -54 -28 -97 -30 -34 -39 -38
-100 -44 -46 -4 -66 -3 -66 6 0 6 6 11 13 11 6 1 0 7 -15 15 -37 21 -178 237
-178 274 0 6 20 -2 46 -18 30 -20 53 -45 70 -78z m217 20 c-7 -2 -19 -2 -25 0
-7 3 -2 5 12 5 14 0 19 -2 13 -5z m326 -128 c18 -36 18 -76 6 -340 l-9 -200
-11 110 c-6 66 -13 101 -17 88 -12 -44 -26 -22 -32 50 -11 128 -13 218 -4 223
4 3 10 27 14 55 8 58 29 64 53 14z"/>
<path d="M1921 2751 c-7 -5 -11 -17 -9 -27 2 -15 13 -19 48 -20 l45 -2 -40 8
c-22 4 -35 8 -28 9 6 0 10 8 9 16 -3 21 -10 25 -25 16z"/>
<path d="M2015 2740 c-3 -5 1 -10 9 -10 9 0 16 5 16 10 0 6 -4 10 -9 10 -6 0
-13 -4 -16 -10z"/>
<path d="M2048 2703 c7 -3 16 -2 19 1 4 3 -2 6 -13 5 -11 0 -14 -3 -6 -6z"/>
<path d="M2310 2515 c0 -11 5 -27 10 -35 8 -12 10 -12 10 5 0 11 -5 27 -10 35
-8 12 -10 12 -10 -5z"/>
<path d="M1147 2123 c-4 -3 -7 -11 -7 -17 0 -6 5 -5 12 2 6 6 9 14 7 17 -3 3
-9 2 -12 -2z"/>
<path d="M1800 1720 c-20 -6 -14 -8 25 -8 37 -1 45 2 30 8 -24 10 -23 10 -55
0z"/>
<path d="M1741 1570 c-79 -29 -111 -44 -111 -53 0 -5 3 -7 8 -5 65 34 118 53
176 63 65 12 67 13 26 14 -25 0 -69 -8 -99 -19z"/>
<path d="M2040 285 c-31 -38 -20 -145 15 -145 35 0 50 114 19 144 -19 19 -19
19 -34 1z"/>
<path d="M1901 224 c-23 -39 -22 -83 4 -104 30 -25 68 76 45 120 -15 28 -25
25 -49 -16z"/>
<path d="M2128 1543 c-10 -2 -18 -9 -18 -14 0 -14 16 -11 30 6 7 8 11 14 9 14
-2 -1 -12 -3 -21 -6z"/>
<path d="M2660 999 c0 -5 5 -7 10 -4 6 3 10 8 10 11 0 2 -4 4 -10 4 -5 0 -10
-5 -10 -11z"/>
<path d="M2202 779 c2 -5 19 -20 38 -31 l35 -22 -29 32 c-29 32 -51 42 -44 21z"/>
<path d="M3196 2522 c6 -4 15 -23 19 -42 11 -53 28 -74 20 -25 -8 48 -22 75
-38 75 -9 0 -9 -2 -1 -8z"/>
<path d="M3121 2439 c-7 -23 -10 -43 -7 -47 3 -3 9 9 12 27 4 17 11 34 15 37
11 7 12 24 1 24 -5 0 -14 -18 -21 -41z"/>
<path d="M3232 2380 c-1 -8 -5 -76 -8 -150 -12 -300 -39 -442 -106 -546 -18
-27 -31 -52 -30 -56 1 -5 -3 -8 -10 -8 -6 0 -9 -3 -5 -6 7 -7 -17 -34 -30 -34
-4 -1 -19 -14 -33 -30 -13 -17 -30 -30 -36 -30 -7 0 -19 -6 -26 -13 -7 -7 -33
-23 -58 -35 -29 -14 -38 -22 -25 -22 27 0 128 53 163 85 15 14 30 25 34 25 9
0 91 118 106 153 7 16 26 96 42 178 28 139 30 164 27 327 -1 98 -4 170 -5 162z"/>
<path d="M3080 2260 c-13 -60 -21 -112 -19 -115 5 -4 27 60 48 140 6 22 13 50
16 63 4 15 2 22 -7 22 -9 0 -21 -36 -38 -110z"/>
<path d="M324 2349 c-3 -6 -2 -21 4 -32 6 -12 14 -44 17 -70 10 -75 16 -50 9
36 -7 73 -14 91 -30 66z"/>
<path d="M2671 2320 c-11 -6 -10 -14 7 -37 25 -35 52 -59 52 -46 0 5 -6 18
-14 28 -8 11 -12 24 -9 30 6 17 -20 35 -36 25z"/>
<path d="M3028 2070 c-10 -24 -16 -45 -14 -48 8 -7 37 59 34 76 -2 10 -10 -2
-20 -28z"/>
<path d="M3000 1965 c-29 -47 -84 -105 -100 -105 -7 0 -27 -12 -45 -27 -17
-16 -40 -33 -51 -40 -18 -12 -18 -12 1 -6 11 3 34 17 52 29 17 13 38 24 46 24
27 0 139 142 124 156 -3 3 -15 -11 -27 -31z"/>
<path d="M2820 1980 c0 -5 5 -10 10 -10 6 0 10 5 10 10 0 6 -4 10 -10 10 -5 0
-10 -4 -10 -10z"/>
<path d="M3463 1925 c0 -22 2 -30 4 -17 2 12 2 30 0 40 -3 9 -5 -1 -4 -23z"/>
<path d="M550 1893 c0 -14 28 -49 34 -42 3 3 -3 16 -14 29 -11 13 -20 19 -20
13z"/>
<path d="M376 1711 c-9 -14 36 -110 77 -164 21 -26 37 -50 37 -53 0 -14 31
-34 52 -34 18 0 20 -2 8 -10 -13 -8 -12 -11 5 -25 50 -39 83 -44 54 -9 -13 16
-12 16 8 6 39 -21 36 -13 -9 24 -61 52 -79 72 -148 174 -66 96 -75 106 -84 91z"/>
<path d="M646 1391 c-15 -6 -16 -10 -7 -16 8 -4 16 -3 20 4 4 6 16 9 27 5 16
-5 16 -4 4 5 -17 12 -18 12 -44 2z"/>
</g>
</svg>
