<?xml version="1.0" standalone="no"?>
<!DOCTYPE svg PUBLIC "-//W3C//DTD SVG 20010904//EN"
 "http://www.w3.org/TR/2001/REC-SVG-20010904/DTD/svg10.dtd">
<svg version="1.0" xmlns="http://www.w3.org/2000/svg"
 width="300.000000pt" height="300.000000pt" viewBox="0 0 300.000000 300.000000"
 preserveAspectRatio="xMidYMid meet">

<g transform="translate(0.000000,300.000000) scale(0.100000,-0.100000)"
fill="#f3f3f3" stroke="none">
<path d="M2340 2592 c-33 -16 -35 -21 -40 -75 l-5 -57 -28 45 c-16 25 -35 45
-43 45 -25 0 -84 -28 -90 -43 -4 -13 61 -214 75 -229 6 -6 77 14 88 26 3 3 1
18 -5 33 -22 61 -22 67 -3 31 25 -45 31 -49 60 -41 21 5 23 10 18 52 l-5 46
12 -39 c7 -22 17 -41 23 -43 18 -6 83 25 83 40 0 13 -65 200 -75 218 -9 13
-26 11 -65 -9z"/>
<path d="M1964 2469 c-94 -29 -95 -31 -50 -165 25 -72 44 -114 53 -114 7 0 30
7 49 15 26 11 34 19 30 31 -3 9 -9 28 -12 42 -6 25 -4 24 21 -10 30 -40 52
-43 103 -12 29 19 28 28 -5 58 -22 21 -27 33 -27 81 -1 47 -5 60 -25 76 -29
24 -59 23 -137 -2z m54 -61 c17 -17 15 -48 -3 -48 -8 0 -15 3 -15 8 0 4 -3 17
-6 30 -7 24 5 29 24 10z"/>
<path d="M1793 2404 c-17 -7 -34 -18 -37 -22 -3 -5 6 -42 19 -83 28 -81 31
-103 13 -97 -7 3 -27 40 -44 84 -29 74 -33 79 -59 77 -16 -1 -37 -10 -46 -20
-17 -17 -17 -21 7 -87 43 -125 72 -148 152 -128 60 16 102 60 101 105 0 37
-51 180 -65 183 -5 1 -23 -4 -41 -12z"/>
<path d="M1478 2298 c-94 -32 -99 -38 -78 -93 9 -23 14 -26 40 -20 21 5 31 3
34 -7 29 -86 51 -138 60 -138 6 0 28 8 48 18 l37 17 -25 69 c-29 84 -29 83 -4
91 21 7 25 30 14 73 -8 28 -19 27 -126 -10z"/>
<path d="M1255 2224 c-119 -43 -92 -164 36 -164 31 0 39 -14 13 -24 -9 -3 -31
-6 -50 -6 -31 0 -34 -3 -34 -29 0 -40 21 -55 67 -46 100 18 151 63 137 120 -9
35 -33 52 -86 59 -59 9 -62 24 -7 32 38 6 40 9 37 38 -3 28 -7 31 -38 33 -19
1 -53 -5 -75 -13z"/>
<path d="M1020 2145 c-70 -22 -111 -47 -105 -65 47 -148 74 -215 87 -218 9 -2
32 4 52 12 33 14 35 17 26 42 -6 15 -9 28 -8 29 2 1 22 12 44 23 23 12 44 28
48 37 18 47 -5 124 -43 145 -25 13 -46 12 -101 -5z m45 -96 c12 -54 -17 -51
-30 4 -6 20 -4 27 8 27 9 0 18 -13 22 -31z"/>
<path d="M811 2062 c-22 -18 -23 -22 -11 -56 6 -21 9 -40 6 -43 -12 -12 -35 7
-41 36 -4 17 -11 33 -16 37 -13 8 -49 -2 -73 -21 -18 -14 -18 -18 20 -130 23
-67 44 -115 52 -115 7 0 29 7 48 15 38 16 37 13 18 81 -3 14 0 23 9 27 10 4
18 -6 26 -33 6 -22 16 -42 21 -45 13 -8 90 25 89 39 0 6 -17 58 -38 116 -33
91 -41 105 -62 108 -13 1 -35 -6 -48 -16z"/>
<path d="M2105 2056 c-33 -8 -116 -41 -184 -75 -110 -54 -131 -61 -183 -61
-55 0 -63 3 -96 36 -35 35 -36 35 -99 28 -34 -3 -63 -10 -63 -14 0 -4 13 -25
29 -47 75 -104 186 -143 321 -113 25 6 96 36 158 67 103 52 119 57 180 57 77
1 111 -15 142 -67 40 -66 17 -140 -57 -184 -76 -44 -151 -39 -328 22 -133 47
-145 49 -246 50 -102 0 -107 -1 -158 -32 -29 -18 -64 -33 -79 -33 -36 -1 -102
-32 -129 -61 -56 -61 -82 -176 -63 -279 36 -196 190 -310 404 -298 93 6 70 -7
-31 -17 -117 -12 -240 25 -327 97 -49 40 -109 132 -126 192 l-13 46 -54 0
c-87 0 -248 -37 -330 -76 -101 -48 -179 -127 -229 -231 -34 -69 -39 -89 -42
-171 -5 -102 5 -150 49 -250 33 -74 84 -148 148 -214 l45 -48 146 0 145 0 -3
44 c-5 59 23 162 55 204 14 19 41 40 59 48 43 18 135 18 178 0 68 -28 115
-131 116 -248 l0 -48 115 0 c111 0 115 1 119 23 51 234 97 386 156 512 75 163
182 295 280 345 l45 23 -39 33 c-22 19 -45 34 -52 34 -7 0 -15 3 -17 8 -3 4
37 8 87 8 162 3 277 44 364 131 70 70 95 127 96 223 1 87 -27 159 -85 221 -94
100 -261 148 -404 115z"/>
<path d="M477 1956 c-33 -14 -62 -27 -65 -31 -7 -7 68 -234 79 -241 4 -2 26 3
49 12 38 15 40 18 34 49 -5 31 -4 34 30 45 20 6 44 23 53 37 14 22 15 31 4 71
-7 26 -19 55 -28 64 -23 25 -86 23 -156 -6z m81 -75 c10 -28 7 -41 -9 -41 -6
0 -29 53 -29 66 0 2 6 4 14 4 8 0 19 -13 24 -29z"/>
<path d="M1924 764 c-37 -18 -54 -51 -54 -104 0 -49 22 -73 96 -106 86 -38 65
-63 -31 -38 -31 8 -59 13 -62 10 -9 -9 -20 -84 -14 -94 19 -30 186 -43 245
-18 104 43 83 171 -35 213 -27 10 -49 23 -49 30 0 15 48 17 84 4 31 -12 46 4
53 57 l5 39 -45 12 c-64 16 -156 13 -193 -5z"/>
<path d="M2295 775 c-5 -2 -27 -6 -47 -10 l-38 -6 0 -133 c0 -122 2 -136 23
-167 58 -86 263 -74 298 18 5 13 9 85 9 159 0 148 5 138 -70 134 -67 -4 -68
-7 -72 -144 -2 -68 -7 -128 -11 -133 -5 -4 -15 1 -23 11 -10 15 -14 52 -14
138 0 106 -2 118 -19 128 -11 5 -21 10 -23 9 -2 0 -7 -2 -13 -4z"/>
<path d="M1722 488 c-7 -7 -12 -24 -12 -38 0 -34 17 -50 55 -50 38 0 55 16 55
50 0 34 -17 50 -55 50 -17 0 -36 -5 -43 -12z"/>
</g>
</svg>
