<?xml version="1.0" standalone="no"?>
<!DOCTYPE svg PUBLIC "-//W3C//DTD SVG 20010904//EN"
 "http://www.w3.org/TR/2001/REC-SVG-20010904/DTD/svg10.dtd">
<svg version="1.0" xmlns="http://www.w3.org/2000/svg"
 width="572.000000pt" height="567.000000pt" viewBox="0 0 572.000000 567.000000"
 preserveAspectRatio="xMidYMid meet">

<g transform="translate(0.000000,567.000000) scale(0.100000,-0.100000)"
fill="#000000" stroke="none">
<path d="M2225 5001 c-119 -24 -166 -56 -207 -138 l-33 -68 2 -257 c2 -222 5
-264 22 -315 10 -32 25 -91 32 -132 7 -43 18 -75 27 -78 7 -3 18 -17 23 -30 8
-21 3 -32 -33 -74 -22 -27 -47 -49 -55 -49 -7 0 -13 -5 -13 -11 0 -7 -7 -8
-17 -4 -10 4 -29 9 -43 12 -85 16 -205 72 -319 150 -33 23 -43 25 -131 21 -85
-3 -103 -7 -175 -41 -75 -36 -135 -80 -135 -99 0 -5 -12 -26 -26 -47 -15 -23
-31 -69 -39 -112 -8 -41 -21 -101 -30 -133 -9 -33 -14 -68 -12 -78 3 -10 1
-18 -5 -18 -6 0 -8 -11 -6 -25 3 -14 1 -25 -5 -25 -6 0 -7 -3 -4 -6 3 -4 2
-16 -4 -27 -9 -15 -8 -18 3 -11 11 6 11 5 -1 -9 -7 -9 -11 -17 -7 -17 3 0 1
-12 -5 -27 -18 -47 -26 -133 -16 -178 2 -11 1 -24 -3 -30 -4 -5 -9 -18 -11
-27 -3 -15 -12 -11 -54 22 -27 22 -54 40 -59 40 -21 0 39 -88 62 -89 6 -1 12
-5 12 -11 0 -5 6 -10 14 -10 8 0 25 -13 38 -28 13 -16 33 -34 43 -40 16 -9 17
-11 4 -12 -9 0 -22 7 -29 15 -7 8 -19 15 -27 15 -14 0 -14 -3 0 -22 8 -13 18
-23 23 -24 17 -2 49 -18 79 -40 87 -64 259 -143 329 -150 23 -3 55 -9 71 -14
59 -17 280 -32 382 -26 61 4 103 3 103 -3 0 -5 16 -8 35 -6 57 6 178 -15 212
-36 38 -24 81 -73 95 -108 15 -41 11 -150 -7 -178 -9 -14 -14 -31 -11 -39 3
-9 -8 -21 -34 -34 -22 -11 -43 -19 -47 -19 -5 1 -24 -5 -43 -13 -19 -9 -51
-19 -72 -22 -20 -3 -49 -11 -65 -18 -31 -14 -59 -38 -46 -39 4 0 -5 -5 -22
-10 -45 -15 -241 -20 -320 -9 -38 6 -77 11 -85 11 -8 1 -21 7 -29 13 -12 9
-13 8 -6 -4 8 -13 7 -13 -8 -1 -11 9 -17 10 -17 2 0 -6 -14 -11 -31 -11 -17 0
-28 4 -24 10 7 12 -2 12 -30 0 -13 -5 -30 -2 -50 10 -16 10 -48 21 -70 25 -22
4 -71 18 -110 32 -38 13 -79 27 -90 30 -19 4 -19 3 2 -15 l22 -19 -42 -13
c-23 -7 -52 -21 -66 -31 -13 -10 -32 -19 -43 -19 -30 0 -89 -34 -152 -89 -32
-29 -92 -75 -135 -103 -184 -123 -476 -403 -567 -543 -32 -49 -75 -113 -96
-141 l-38 -51 0 -651 0 -652 1314 0 1314 0 7 97 c4 53 8 114 9 134 0 21 4 32
8 26 4 -6 5 -67 2 -134 l-5 -122 1536 -1 1535 0 0 751 0 752 -54 71 c-29 39
-157 175 -284 302 -310 310 -516 476 -714 572 -82 40 -91 42 -137 34 -35 -6
-53 -5 -65 4 -13 9 -14 13 -4 18 7 3 0 2 -17 -2 -16 -4 -45 -7 -62 -7 -18 0
-33 -3 -33 -7 0 -5 -9 -8 -19 -8 -11 0 -23 -4 -26 -10 -3 -5 1 -10 11 -10 15
0 53 -34 55 -49 0 -3 2 -14 4 -23 2 -10 -2 -21 -8 -25 -7 -5 -25 -35 -42 -67
-16 -33 -48 -78 -70 -101 -72 -74 -321 -254 -403 -291 -42 -19 -97 -46 -122
-58 -46 -24 -264 -82 -333 -88 l-38 -4 2 45 c2 25 7 54 13 63 7 12 7 28 -2 52
-7 20 -17 67 -21 106 l-7 70 37 0 c22 0 41 6 46 14 4 7 47 23 95 35 107 27
392 157 503 230 67 44 127 70 200 85 39 8 66 15 60 16 -11 2 -38 8 -57 13 -7
2 -21 7 -30 11 -9 4 -26 1 -40 -8 -14 -9 -28 -13 -32 -9 -4 5 -40 11 -79 14
-40 4 -92 12 -117 17 -25 6 -91 16 -148 23 -62 7 -101 16 -100 23 1 6 -4 22
-12 36 -9 15 -15 53 -15 95 0 95 37 170 115 233 79 63 108 73 244 81 67 4 126
10 133 14 7 5 -10 46 -54 128 -54 102 -78 158 -119 281 -5 15 -2 16 23 9 16
-5 42 -15 59 -23 16 -9 64 -18 107 -20 60 -4 85 -10 105 -27 46 -36 143 -82
226 -107 45 -13 95 -31 112 -39 41 -19 93 -13 125 15 24 22 25 25 16 81 -9 53
-11 57 -28 48 -11 -5 -19 -6 -19 -1 0 6 9 12 20 15 17 4 20 13 20 69 0 34 -4
69 -9 77 -5 8 -7 -10 -4 -48 5 -58 4 -61 -16 -61 -17 0 -20 3 -13 16 6 10 6
33 0 58 -13 54 -14 63 -23 116 -4 25 -20 73 -36 108 -16 34 -29 70 -29 80 0 9
-5 24 -11 32 -8 11 -9 5 -4 -23 4 -24 2 -44 -6 -53 -9 -11 -6 -31 13 -91 14
-43 31 -98 38 -123 7 -25 16 -56 20 -70 5 -14 9 -43 10 -65 4 -79 5 -85 13
-85 4 0 7 -16 7 -35 0 -39 -16 -46 -41 -16 -11 12 -14 23 -7 35 10 18 -6 23
-18 5 -3 -6 -17 -8 -29 -5 -13 3 -27 2 -30 -4 -8 -13 -35 -13 -35 0 0 6 7 10
15 10 8 0 15 4 15 9 0 16 -30 41 -49 41 -10 0 -65 21 -122 46 -127 56 -153 65
-204 70 -22 3 -59 14 -82 24 -24 11 -47 20 -53 20 -5 0 -10 5 -10 10 0 15 -48
58 -71 65 -11 4 -19 13 -19 21 0 9 -18 41 -40 71 -22 31 -40 62 -40 70 0 8 -8
31 -19 52 -19 41 -16 106 7 146 19 32 35 79 33 96 -1 9 10 27 23 40 14 13 26
30 26 37 0 18 85 69 147 89 29 9 50 20 48 24 -7 11 -81 -9 -136 -36 l-49 -25
5 42 c3 24 9 59 12 78 4 19 7 49 9 65 1 17 6 45 9 63 6 28 5 32 -14 32 -12 0
-21 6 -21 15 0 8 4 15 9 15 13 0 3 53 -12 62 -9 6 -8 11 3 18 10 6 11 10 3 10
-7 0 -10 6 -7 13 4 10 -3 13 -25 9 -28 -4 -30 -1 -37 34 -4 22 -11 42 -16 45
-6 4 -6 14 1 26 8 16 6 24 -8 37 -11 10 -26 18 -34 20 -8 1 -21 7 -29 13 -29
25 -245 100 -373 130 -38 10 -108 17 -155 17 -101 -1 -162 -21 -263 -89 -37
-25 -70 -45 -72 -45 -3 0 -5 8 -5 18 0 11 -14 38 -31 61 -46 64 -123 94 -335
131 -198 34 -226 35 -339 11z m1325 -178 c134 -39 250 -87 250 -103 0 -12 -37
-13 -44 -1 -7 11 -140 52 -182 56 -22 1 -33 -2 -31 -9 3 -6 10 -10 16 -8 16 3
42 -23 33 -34 -4 -5 -1 -4 7 3 10 8 24 7 57 -4 24 -8 44 -19 44 -24 0 -5 5 -9
11 -9 5 0 7 6 3 13 -9 14 17 -5 60 -45 16 -16 32 -28 36 -28 4 0 11 -8 14 -17
4 -10 15 -34 26 -53 10 -19 22 -52 25 -72 4 -21 14 -42 23 -48 15 -9 15 -10
-4 -16 -17 -5 -22 -13 -21 -40 1 -25 5 -34 18 -34 10 0 19 -9 22 -22 3 -14 5
-9 6 15 0 20 6 37 12 37 7 0 8 -24 4 -72 -4 -40 -8 -99 -10 -132 -2 -32 -9
-63 -15 -70 -9 -8 -11 -5 -8 13 1 13 -3 26 -9 28 -9 3 -13 -5 -13 -24 0 -20
-3 -24 -9 -14 -5 8 -6 24 -2 35 5 12 6 27 4 34 -3 7 4 16 15 19 24 6 22 39 -2
37 -8 -1 -13 2 -10 7 3 5 -4 9 -15 9 -13 0 -21 -7 -21 -17 0 -15 -2 -15 -9 -4
-6 9 -6 22 1 34 7 13 7 17 0 13 -13 -8 -18 9 -31 93 -16 97 -58 172 -124 214
-33 21 -142 57 -177 57 -14 1 -38 7 -55 15 -50 22 -1 18 98 -9 48 -14 87 -22
87 -20 0 3 7 -2 16 -11 10 -10 24 -13 38 -9 30 9 31 12 11 34 -19 21 -86 46
-149 56 -22 3 -50 10 -63 15 -32 12 -34 12 -31 -7 5 -30 -58 -35 -197 -15
-118 17 -131 31 -29 32 l79 1 -53 9 c-29 5 -62 14 -74 20 -19 10 -19 11 -2 30
16 18 16 19 -4 19 -12 0 -22 -4 -22 -9 0 -5 -10 -12 -22 -16 -19 -6 -20 -8 -6
-12 15 -4 18 -24 9 -50 -1 -1 -18 4 -38 11 -21 7 -44 11 -50 9 -25 -9 -12 16
25 47 20 17 31 28 23 24 -9 -5 -12 -3 -7 5 14 21 71 45 126 52 100 12 208 0
340 -38z m-1252 27 c19 -5 57 -10 85 -11 29 -1 91 -11 139 -21 58 -14 97 -18
115 -12 48 14 94 11 91 -6 -5 -23 -85 -24 -201 -1 -191 37 -345 35 -378 -5
-10 -13 -8 -13 15 -4 47 18 50 11 11 -23 -35 -30 -41 -42 -53 -108 -8 -41 -15
-112 -17 -159 -7 -175 -14 -243 -24 -253 -8 -8 -11 27 -12 124 -2 198 1 247
20 324 31 121 45 138 136 158 33 8 39 7 73 -3z m1552 -170 c0 -5 -7 -10 -15
-10 -8 0 -15 5 -15 10 0 6 7 10 15 10 8 0 15 -4 15 -10z m77 -145 c0 -8 -4
-15 -9 -15 -4 0 -8 7 -8 15 0 8 4 15 8 15 5 0 9 -7 9 -15z m-84 -367 c-8 -46
-13 -48 -13 -5 0 21 4 37 10 37 5 0 7 -14 3 -32z m-1413 -72 c0 -3 -4 -8 -10
-11 -5 -3 -10 -1 -10 4 0 6 5 11 10 11 6 0 10 -2 10 -4z m-80 -36 c0 -5 -4
-10 -9 -10 -6 0 -13 5 -16 10 -3 6 1 10 9 10 9 0 16 -4 16 -10z m-852 -98 c2
-7 16 -12 30 -12 15 0 54 -14 87 -30 33 -16 70 -30 83 -30 13 0 20 -4 17 -10
-3 -5 -1 -11 4 -11 6 -1 15 -2 19 -3 18 -3 162 -82 162 -89 0 -4 -12 -12 -27
-18 -21 -8 -24 -12 -13 -19 12 -7 11 -12 -4 -29 -10 -11 -15 -25 -11 -31 4 -6
-3 -29 -15 -52 -12 -23 -19 -49 -17 -58 2 -10 -4 -22 -16 -29 -14 -9 -16 -15
-8 -20 8 -5 6 -12 -6 -24 -32 -31 -66 -57 -75 -57 -4 0 -17 -9 -28 -20 -11
-11 -20 -16 -20 -11 0 15 -103 -10 -167 -40 -34 -16 -83 -50 -110 -74 -26 -25
-51 -45 -55 -45 -4 0 -14 -13 -22 -28 -8 -16 -42 -56 -75 -90 -38 -38 -59 -66
-55 -75 3 -10 -6 -20 -27 -31 -40 -20 -55 -20 -39 -1 15 18 -1 20 -18 3 -9 -9
-12 -7 -12 9 0 14 -8 23 -25 27 -14 4 -25 12 -25 18 0 6 3 8 7 5 3 -4 12 1 19
11 17 22 18 102 2 102 -6 0 -3 7 8 16 10 8 13 13 7 9 -18 -8 -16 15 3 60 8 21
15 56 14 79 -1 22 -1 43 0 46 1 3 3 14 4 25 13 101 19 136 28 170 6 22 12 52
14 66 7 53 25 122 39 148 26 48 90 112 113 114 12 1 22 5 22 9 0 4 18 11 40
14 22 4 40 10 40 13 0 12 104 5 108 -7z m2062 4 c0 -3 -4 -8 -10 -11 -5 -3
-10 -1 -10 4 0 6 5 11 10 11 6 0 10 -2 10 -4z m-1320 -100 c123 -35 186 -44
365 -51 88 -3 201 -10 250 -15 177 -19 272 -29 395 -45 260 -33 307 -37 378
-32 43 3 70 2 67 -4 -4 -5 -12 -9 -19 -9 -16 0 -54 -17 -161 -71 -107 -55
-214 -98 -305 -123 -36 -10 -72 -21 -80 -24 -8 -3 -21 -4 -27 -3 -7 1 -13 -3
-13 -8 0 -6 -18 -15 -40 -21 -50 -13 -51 -32 -2 -53 53 -24 116 -76 138 -115
10 -18 46 -60 81 -92 35 -33 63 -62 63 -65 0 -4 14 -18 30 -32 17 -13 30 -31
30 -39 0 -8 5 -14 10 -14 6 0 10 -7 10 -15 0 -8 3 -15 8 -15 4 0 13 -17 20
-37 27 -80 32 -113 22 -155 -11 -52 -49 -159 -60 -173 -4 -5 -10 -30 -12 -55
-3 -25 -14 -79 -25 -120 -15 -52 -21 -108 -22 -184 0 -61 -5 -114 -11 -120 -5
-5 -10 -6 -10 -1 0 4 -9 0 -20 -10 -11 -10 -20 -28 -20 -39 1 -18 3 -17 17 9
14 25 18 27 21 11 2 -10 -1 -21 -6 -25 -20 -12 -24 -77 -7 -128 9 -28 15 -62
12 -75 -3 -17 -5 -14 -6 12 -2 34 -3 34 -16 -15 -16 -59 -18 -116 -18 -363 1
-152 4 -186 17 -208 13 -19 18 -59 22 -171 6 -150 30 -278 68 -348 9 -16 16
-35 16 -41 0 -5 9 -20 21 -33 12 -12 18 -25 15 -29 -4 -3 -48 -5 -99 -3 -103
3 -138 -7 -236 -66 -64 -38 -163 -129 -191 -176 l-20 -32 -1 30 c-3 45 -5 59
-11 75 -4 8 -9 26 -12 40 -4 22 -17 74 -47 190 -5 19 -11 58 -14 85 -2 28 -9
63 -14 78 -6 16 -11 38 -11 50 0 12 -7 36 -16 52 -9 17 -18 59 -20 95 -3 36
-10 81 -16 100 -6 19 -11 49 -9 67 1 17 -9 55 -22 85 -19 41 -25 72 -26 138
-1 52 -7 93 -16 106 -7 12 -17 50 -21 85 -3 35 -10 69 -14 74 -4 6 -7 49 -6
98 1 76 -1 87 -16 87 -11 0 -15 5 -12 15 4 8 2 21 -4 28 -5 6 -16 31 -23 55
-6 23 -18 42 -26 42 -10 0 -9 6 4 27 17 26 17 27 0 20 -9 -3 -17 -2 -17 3 0 6
8 10 18 11 14 0 14 2 2 7 -19 9 -25 33 -10 42 16 10 31 80 18 80 -6 0 -5 6 2
15 10 12 9 15 -6 16 -12 0 -14 3 -6 6 10 4 9 9 -4 24 -13 14 -17 41 -19 113
-2 51 0 109 4 127 9 41 -4 107 -26 131 -8 9 -12 21 -9 26 3 5 -1 31 -9 58 -35
123 -43 245 -18 265 7 6 13 17 13 25 0 7 8 17 18 23 9 5 18 20 19 33 3 46 15
84 46 142 27 51 38 61 67 68 50 12 100 40 100 56 0 7 -4 11 -8 8 -4 -2 -50 -1
-102 4 -140 12 -396 75 -430 105 -21 18 -117 56 -159 61 -19 2 -40 9 -48 15
-10 9 -13 8 -13 0 0 -7 -4 -10 -9 -7 -12 8 5 89 32 152 14 33 34 60 57 75 49
33 82 48 100 43 8 -2 53 -14 100 -28z m443 -4 c44 -1 66 -6 62 -12 -4 -7 -59
-10 -143 -10 -138 1 -182 6 -182 20 0 6 82 7 263 2z m-723 -37 c0 -8 -7 -15
-15 -15 -26 0 -18 20 13 29 1 1 2 -6 2 -14z m1221 -33 c-18 -2 -37 0 -42 5 -5
5 11 6 34 3 41 -4 41 -5 8 -8z m-1276 -82 c-4 -12 -9 -19 -12 -17 -3 3 -2 15
2 27 4 12 9 19 12 17 3 -3 2 -15 -2 -27z m1875 -56 c0 -8 5 -14 10 -14 13 0
41 -61 34 -72 -3 -5 0 -8 6 -8 6 0 9 -4 6 -9 -3 -5 1 -26 10 -46 8 -20 14 -47
12 -59 -3 -26 36 -92 63 -107 11 -5 17 -14 14 -20 -4 -5 -1 -9 4 -9 6 0 11 -5
11 -10 0 -6 10 -21 23 -33 27 -27 42 -50 67 -105 26 -57 26 -76 0 -69 -11 3
-20 1 -20 -4 0 -5 7 -9 15 -9 8 0 15 -7 15 -16 0 -8 -5 -12 -10 -9 -6 4 -55 8
-109 10 -54 2 -109 8 -120 15 -12 6 -31 8 -43 4 -15 -4 -18 -3 -13 6 5 9 1 10
-15 5 -15 -5 -20 -4 -16 4 4 7 -1 11 -13 11 -14 0 -19 5 -15 15 9 21 -7 19
-59 -10 -29 -17 -48 -22 -52 -15 -3 6 -10 8 -15 5 -5 -3 -21 -3 -34 1 -32 8
-23 28 10 21 12 -2 28 -1 34 3 7 4 -19 11 -56 15 -73 8 -124 27 -124 48 0 6
-3 22 -6 34 -6 20 -3 22 37 20 37 -2 44 1 44 18 0 17 6 20 38 17 23 -2 49 3
63 12 13 9 32 16 44 16 28 0 160 136 160 165 0 9 -4 14 -9 11 -5 -4 -5 9 -1
30 5 22 4 47 -2 63 -9 21 -13 69 -9 97 2 11 21 -8 21 -22z m-110 -137 c0 -45
-4 -54 -39 -87 -31 -30 -55 -41 -124 -58 -94 -24 -142 -28 -152 -12 -3 6 -14
10 -24 10 -10 0 -29 11 -43 24 -48 43 -15 97 76 124 22 6 43 9 48 6 13 -8 9
-26 -9 -39 -15 -11 -15 -13 6 -20 33 -10 57 15 42 43 -10 19 -7 23 31 40 24
10 65 22 93 25 27 4 54 12 59 17 18 18 36 -20 36 -73z m-1434 -44 c30 -14 54
-30 54 -34 0 -4 9 -5 19 -2 24 6 48 -32 32 -51 -15 -18 -6 -23 28 -18 22 3 28
8 24 23 -4 16 0 19 24 19 31 0 93 -18 93 -27 0 -16 -37 -63 -57 -72 -12 -6
-23 -15 -23 -20 0 -17 -38 -32 -99 -38 -86 -8 -182 25 -216 75 -14 20 -25 47
-25 60 0 29 40 100 60 106 27 7 31 6 86 -21z m-200 -81 c1 -49 5 -67 17 -74
10 -5 17 -22 17 -39 0 -59 56 -109 87 -78 7 7 17 8 25 3 25 -16 78 -32 78 -23
0 5 4 9 10 9 5 0 7 -6 4 -14 -7 -18 23 -28 46 -16 31 17 32 12 5 -24 -14 -19
-28 -48 -30 -66 -2 -21 -16 -43 -37 -61 -21 -18 -26 -26 -14 -22 19 6 18 4 -3
-25 -12 -18 -31 -32 -42 -32 -11 0 -56 -18 -102 -39 -146 -70 -255 -97 -351
-86 -95 10 -109 15 -95 32 9 10 14 11 20 2 4 -7 14 5 27 32 10 24 31 55 45 68
15 13 24 28 21 33 -3 5 0 7 8 6 7 -2 12 5 12 15 -1 10 3 16 9 14 11 -3 57 55
57 72 0 5 6 14 14 20 28 24 70 141 81 231 2 14 6 34 8 45 2 11 1 30 -4 41 -10
29 5 41 49 41 l37 0 1 -65z m-295 -57 c52 3 103 6 114 7 17 3 20 -2 18 -31 -3
-59 -53 -166 -104 -225 -57 -63 -159 -212 -159 -231 0 -21 -28 -38 -47 -29
-10 4 -27 9 -38 10 -11 2 -64 11 -117 22 -54 10 -98 15 -98 10 0 -4 -7 -8 -15
-8 -18 0 -20 20 -2 21 6 0 1 4 -11 10 -13 5 -27 7 -32 4 -4 -3 -13 2 -20 10
-7 8 -18 15 -26 15 -7 0 -22 14 -34 30 l-21 30 28 0 c35 0 86 51 166 165 30
44 68 93 84 109 64 65 151 102 199 85 12 -4 64 -6 115 -4z m579 -159 c0 -2 -7
-6 -15 -10 -8 -3 -15 -1 -15 4 0 6 7 10 15 10 8 0 15 -2 15 -4z m30 -74 c0 -5
-9 -17 -21 -28 -21 -19 -21 -19 -8 9 12 26 29 37 29 19z m1265 -42 c38 -6 95
-8 126 -5 34 4 59 3 63 -3 6 -10 -21 -43 -100 -125 -23 -23 -54 -67 -69 -97
-23 -46 -28 -67 -27 -130 1 -41 2 -84 4 -95 3 -18 -3 -20 -64 -20 -36 0 -64
-3 -62 -6 2 -4 -5 -9 -15 -12 -13 -3 -21 1 -24 14 -3 11 -2 19 2 19 4 0 12 16
18 35 6 20 7 35 2 35 -16 0 -10 29 9 40 16 11 16 11 0 6 -11 -3 -18 0 -18 9 0
16 27 45 41 45 6 0 7 5 4 10 -3 6 3 10 13 10 30 0 48 27 34 51 -7 10 -8 19 -3
19 5 0 11 14 13 30 3 17 1 30 -4 30 -4 0 -11 18 -14 40 -4 22 -10 40 -15 40
-5 0 -9 10 -9 22 0 12 -7 30 -17 40 -15 17 -15 18 13 13 16 -2 60 -9 99 -15z
m-1212 -209 c49 -83 61 -135 56 -256 -1 -16 3 -57 9 -90 12 -72 5 -85 -49 -85
l-38 0 20 57 c21 61 24 93 10 93 -8 0 -25 49 -26 75 0 23 -118 127 -170 151
-30 14 -53 30 -49 35 3 5 23 18 44 29 21 11 62 47 92 81 l53 61 5 -44 c3 -26
21 -71 43 -107z m1129 -33 c-7 -7 -12 -8 -12 -2 0 6 3 14 7 17 3 4 9 5 12 2 2
-3 -1 -11 -7 -17z m-2075 6 c-3 -3 -12 -4 -19 -1 -8 3 -5 6 6 6 11 1 17 -2 13
-5z m2123 -348 c0 -7 -6 -18 -13 -24 -19 -16 -69 -19 -74 -4 -3 7 4 12 15 12
11 0 25 7 32 15 16 19 40 20 40 1z m402 -48 c20 -16 7 -58 -19 -58 -9 0 -27
-10 -40 -21 -18 -18 -25 -20 -38 -9 -21 17 -19 56 5 80 23 23 68 26 92 8z
m-1535 -84 c14 -13 14 -17 2 -25 -8 -5 -26 -9 -41 -9 -21 0 -28 5 -28 18 0 10
3 22 7 25 12 12 44 7 60 -9z m1343 -26 c11 -12 20 -25 20 -29 0 -14 -31 -39
-49 -39 -9 0 -26 -7 -37 -15 -25 -19 -34 -19 -34 0 0 8 -7 15 -15 15 -8 0 -15
2 -15 5 0 12 33 70 44 77 22 15 66 8 86 -14z m-222 -80 c16 -16 15 -43 -1 -56
-12 -10 -137 -23 -137 -15 0 9 23 49 38 66 18 20 82 23 100 5z m-1490 -39 c35
-12 48 -35 30 -56 -11 -14 -54 -11 -71 6 -7 7 0 61 8 61 1 0 16 -5 33 -11z
m-93 -69 c69 -51 105 -69 199 -95 147 -42 177 -46 244 -37 72 10 85 0 62 -44
-11 -20 -11 -38 -1 -97 6 -39 14 -90 17 -113 l6 -41 -51 -7 c-29 -4 -49 -11
-46 -16 12 -19 -118 -16 -185 5 -25 7 -81 19 -125 25 -43 7 -113 25 -154 41
-42 16 -79 29 -83 29 -4 0 -56 29 -115 63 -95 56 -168 98 -253 143 -14 8 -30
14 -36 14 -14 0 -84 78 -84 94 0 7 -12 18 -27 25 -25 12 -26 13 -9 23 13 7 20
7 25 0 9 -15 36 -10 59 11 21 19 32 22 32 6 0 -5 -4 -8 -9 -4 -5 3 -12 1 -15
-4 -7 -11 22 -23 35 -15 5 3 9 1 9 -4 0 -10 78 0 98 12 7 4 12 1 12 -8 0 -9 4
-16 9 -16 5 0 24 -3 42 -6 l34 -5 -25 15 c-23 13 -23 15 -7 22 10 4 65 7 122
8 57 0 100 3 95 4 -6 2 -10 8 -10 13 0 21 87 -5 135 -41z m271 5 c20 -20 23
-28 14 -45 -13 -24 -38 -25 -85 -6 -27 11 -35 21 -35 40 0 43 67 50 106 11z
m2306 -22 c-3 -16 -7 -22 -10 -15 -4 13 4 42 11 42 2 0 2 -12 -1 -27z m-2120
-10 c10 -9 18 -26 18 -38 0 -26 -24 -50 -40 -40 -6 4 -25 1 -42 -6 -27 -11
-32 -10 -44 6 -19 26 -18 38 11 69 28 30 69 34 97 9z m-1099 -127 c4 -10 1
-13 -8 -9 -8 3 -12 9 -9 14 7 12 11 11 17 -5z m-19 -50 c-3 -9 -10 -13 -16
-10 -5 3 -4 12 3 20 15 18 22 13 13 -10z m80 -20 c9 -19 16 -41 16 -50 0 -9 4
-16 10 -16 5 0 7 -7 4 -15 -4 -9 0 -15 8 -15 8 0 15 -6 15 -12 0 -7 4 -21 8
-30 6 -14 2 -18 -18 -18 -20 0 -24 4 -20 20 3 12 -1 22 -11 26 -9 3 -13 10
-10 15 3 5 -2 12 -10 15 -9 3 -16 14 -16 24 0 10 -8 21 -18 24 -20 7 -25 34
-9 54 16 21 34 13 51 -22z m3121 -4 c-6 -4 -12 -18 -13 -32 -6 -73 -15 -120
-24 -120 -6 0 -8 -7 -4 -15 3 -9 -1 -15 -11 -15 -13 0 -14 -2 -2 -17 12 -14
12 -16 0 -8 -11 6 -13 4 -8 -8 5 -12 1 -17 -13 -17 -11 0 -21 -7 -21 -15 -1
-8 -3 -19 -4 -25 -1 -5 -3 -15 -4 -21 0 -5 -5 -8 -10 -5 -5 3 -14 -1 -21 -9
-9 -11 -9 -15 -1 -15 7 0 9 -5 6 -10 -4 -6 -10 -8 -14 -6 -4 3 -15 -8 -25 -25
-9 -16 -20 -28 -24 -26 -4 2 -15 -4 -24 -15 -10 -10 -15 -18 -12 -18 17 0 -94
-80 -118 -85 -15 -4 -28 -13 -28 -21 0 -8 -6 -14 -14 -14 -8 0 -17 -6 -19 -12
-4 -10 -8 -9 -16 2 -9 13 -11 12 -11 -5 -1 -21 -22 -55 -35 -55 -4 0 -25 -18
-47 -40 -43 -43 -138 -97 -138 -78 0 7 -4 7 -14 -1 -10 -9 -15 -8 -20 4 -3 8
-11 16 -18 16 -23 3 -207 203 -212 231 -3 21 -1 25 10 21 8 -3 13 -11 10 -19
-4 -12 78 -74 118 -90 51 -20 -22 48 -156 145 -73 53 -75 55 -64 82 8 23 12
26 19 14 10 -19 27 -19 27 0 0 8 4 15 9 15 12 0 66 -53 66 -65 0 -6 12 -11 28
-13 15 -2 27 -8 27 -13 0 -5 9 -9 20 -9 11 0 19 -3 19 -7 -4 -22 3 -25 16 -7
13 16 14 16 9 2 -5 -14 -1 -18 17 -19 13 0 18 -3 12 -6 -22 -8 -14 -21 8 -16
12 3 24 1 28 -6 5 -8 15 -6 34 9 34 27 67 34 67 14 0 -8 5 -14 10 -14 6 0 10
9 10 21 0 28 18 59 34 59 8 0 47 31 87 70 70 66 116 96 73 48 -11 -13 -28 -35
-37 -50 -17 -27 -17 -28 4 -28 23 0 72 34 62 44 -3 3 -1 6 5 6 7 0 12 -5 12
-11 0 -5 5 -7 11 -4 6 4 8 13 5 20 -2 7 4 21 15 31 10 9 19 12 19 6 0 -6 -4
-14 -10 -17 -5 -3 -10 -11 -10 -17 0 -7 6 -6 15 2 8 7 15 22 15 34 0 15 3 17
9 8 10 -17 72 44 64 64 -3 8 0 14 7 14 17 0 45 31 45 49 0 9 10 17 23 19 24 4
29 17 10 25 -7 3 -3 6 8 6 13 1 24 9 27 22 3 12 9 19 14 16 5 -3 20 3 33 14
14 10 30 19 35 19 6 0 6 -3 0 -8z m-167 -64 c-5 -16 -48 -24 -48 -10 0 11 17
20 38 21 8 1 12 -5 10 -11z m-2870 -124 c7 -14 9 -37 6 -51 -5 -19 -3 -24 7
-21 8 3 13 11 11 18 -1 6 19 -5 45 -27 26 -21 43 -31 38 -23 -4 8 2 5 14 -7
12 -13 26 -23 31 -23 6 0 10 -6 10 -14 0 -8 14 -19 32 -25 18 -6 44 -23 59
-37 35 -34 115 -45 122 -17 4 14 5 12 6 -6 1 -20 3 -21 16 -11 8 7 15 9 15 5
0 -5 9 2 20 15 16 18 20 20 20 7 0 -10 -4 -17 -10 -17 -5 0 -10 -4 -10 -10 0
-6 27 -10 61 -10 40 0 58 4 54 11 -4 6 -13 8 -19 6 -7 -3 -19 -1 -27 3 -8 5
-16 5 -20 -1 -3 -6 -9 -1 -12 11 -5 19 -2 21 34 17 22 -2 42 -1 44 3 2 3 44 7
92 8 48 1 99 4 113 7 22 5 25 2 27 -22 1 -16 -3 -33 -8 -39 -5 -6 -6 -19 -3
-28 8 -21 -40 -66 -88 -82 -10 -4 -18 -12 -18 -19 0 -20 33 -23 47 -5 9 10 12
11 13 2 0 -7 -9 -20 -20 -29 -11 -10 -20 -23 -20 -30 0 -6 -7 -19 -16 -27 -14
-15 -13 -16 6 -16 12 0 18 -4 15 -10 -3 -5 -17 -10 -30 -10 -18 0 -26 -7 -31
-25 -3 -14 -10 -25 -14 -25 -5 0 -22 -11 -38 -25 -17 -14 -41 -24 -58 -24 -54
1 -109 -8 -133 -20 -12 -7 -25 -10 -29 -7 -3 3 0 6 6 6 7 0 12 4 12 9 0 5 -8
7 -17 5 -27 -6 -51 12 -36 27 12 12 7 39 -9 39 -5 0 -6 -9 -3 -20 8 -24 -10
-27 -19 -4 -4 10 1 22 11 30 17 13 17 13 -2 15 -11 1 -22 1 -25 1 -3 0 -11 6
-18 14 -7 8 -10 14 -7 14 3 0 -4 10 -17 23 -28 27 -88 114 -88 127 0 6 -8 10
-17 10 -10 0 -27 13 -37 28 l-19 27 24 -22 c35 -32 41 -29 22 12 -9 19 -20 35
-24 35 -3 0 -16 21 -28 48 -12 26 -33 67 -47 92 -14 25 -23 53 -20 63 3 14 0
16 -15 12 -11 -4 -19 -2 -19 4 0 6 5 11 10 11 7 0 7 6 1 19 -10 17 -6 31 9 31
4 0 12 -12 18 -26z m2959 -76 c-3 -8 -6 -5 -6 6 -1 11 2 17 5 13 3 -3 4 -12 1
-19z m-2907 -168 c6 -11 7 -20 3 -20 -5 0 -14 9 -21 20 -7 11 -8 20 -2 20 5 0
14 -9 20 -20z m1116 -178 c32 -76 34 -127 19 -381 -8 -135 -16 -330 -17 -433
-2 -104 -6 -188 -10 -188 -5 0 -8 24 -9 53 -1 71 -8 159 -14 175 -2 7 -7 70
-11 140 -7 133 -14 174 -14 79 0 -36 -5 -61 -15 -71 -11 -11 -15 -39 -15 -117
0 -56 -2 -100 -5 -97 -3 3 -8 43 -10 89 -3 46 -10 140 -15 209 -5 69 -10 152
-10 185 0 33 -2 99 -5 147 -3 64 -1 89 9 97 7 6 12 22 10 36 -1 14 2 23 7 19
10 -6 12 4 9 59 -1 21 4 44 10 52 19 22 66 -7 86 -53z m871 -658 c34 -36 67
-81 74 -101 15 -48 5 -140 -22 -198 -23 -48 -95 -132 -106 -122 -3 3 7 17 22
31 16 15 24 26 18 26 -5 0 -31 -22 -59 -48 -71 -69 -114 -99 -154 -106 -162
-28 -208 -10 -304 117 -63 85 -86 127 -86 160 0 32 52 109 97 143 21 16 45 36
55 46 44 44 133 83 228 99 165 29 165 29 237 -47z m-960 -236 c-3 -8 -6 -5 -6
6 -1 11 2 17 5 13 3 -3 4 -12 1 -19z"/>
<path d="M3228 4833 c12 -2 30 -2 40 0 9 3 -1 5 -23 4 -22 0 -30 -2 -17 -4z"/>
<path d="M3158 4823 c7 -3 16 -2 19 1 4 3 -2 6 -13 5 -11 0 -14 -3 -6 -6z"/>
<path d="M3354 4781 c3 -5 15 -7 26 -4 28 7 25 13 -6 13 -14 0 -23 -4 -20 -9z"/>
<path d="M3396 4735 c4 -8 8 -15 10 -15 2 0 4 7 4 15 0 8 -4 15 -10 15 -5 0
-7 -7 -4 -15z"/>
<path d="M3700 4590 c18 -12 30 -13 30 -2 0 4 -10 9 -22 9 -18 2 -20 0 -8 -7z"/>
<path d="M3827 4363 c3 -32 7 -60 9 -62 8 -9 15 53 10 84 -11 57 -25 40 -19
-22z"/>
<path d="M3873 4295 c-17 -19 -16 -25 2 -25 8 0 15 9 15 20 0 23 -1 24 -17 5z"/>
<path d="M1810 3730 c-14 -11 -20 -20 -14 -20 6 0 19 9 29 20 23 25 17 25 -15
0z"/>
<path d="M2925 3450 c-3 -5 -2 -10 4 -10 5 0 13 5 16 10 3 6 2 10 -4 10 -5 0
-13 -4 -16 -10z"/>
<path d="M2553 3215 c-26 -25 -43 -45 -37 -45 9 0 82 36 116 56 11 7 -3 34
-17 34 -7 0 -35 -20 -62 -45z"/>
<path d="M2930 3041 c-45 -8 -19 -18 40 -15 25 1 60 3 79 3 19 1 32 3 30 5 -9
8 -116 13 -149 7z"/>
<path d="M2710 2969 c0 -5 5 -7 10 -4 6 3 10 8 10 11 0 2 -4 4 -10 4 -5 0 -10
-5 -10 -11z"/>
<path d="M2600 2919 c0 -5 5 -7 10 -4 6 3 10 8 10 11 0 2 -4 4 -10 4 -5 0 -10
-5 -10 -11z"/>
<path d="M2565 2890 c-3 -5 -1 -10 4 -10 6 0 11 5 11 10 0 6 -2 10 -4 10 -3 0
-8 -4 -11 -10z"/>
<path d="M2954 2808 c-93 -9 -306 -93 -318 -124 -3 -7 30 5 73 26 93 47 264
93 326 88 25 -2 45 0 45 3 0 12 -53 14 -126 7z"/>
<path d="M3321 2194 c0 -11 3 -14 6 -6 3 7 2 16 -1 19 -3 4 -6 -2 -5 -13z"/>
<path d="M3509 2728 c-9 -30 -6 -37 12 -27 11 5 17 14 14 20 -6 8 -24 13 -26
7z"/>
<path d="M3492 2651 c-8 -4 -12 -18 -10 -31 3 -20 4 -20 15 9 6 17 11 31 10
31 -1 0 -8 -4 -15 -9z"/>
<path d="M1395 2109 c-4 -6 -5 -13 -2 -16 7 -7 27 6 27 18 0 12 -17 12 -25 -2z"/>
<path d="M1427 2096 c-3 -8 2 -16 13 -19 23 -6 30 0 23 19 -7 18 -29 18 -36 0z"/>
<path d="M4321 1544 c0 -11 3 -14 6 -6 3 7 2 16 -1 19 -3 4 -6 -2 -5 -13z"/>
<path d="M4098 1543 c6 -2 18 -2 25 0 6 3 1 5 -13 5 -14 0 -19 -2 -12 -5z"/>
<path d="M4275 1499 c-4 -6 -5 -12 -2 -15 2 -3 7 2 10 11 7 17 1 20 -8 4z"/>
<path d="M1702 1490 c0 -14 2 -19 5 -12 2 6 2 18 0 25 -3 6 -5 1 -5 -13z"/>
<path d="M1720 1455 c0 -28 80 -112 116 -121 14 -4 21 -11 17 -20 -4 -11 11
-13 85 -10 49 2 99 9 112 16 12 6 31 10 41 7 10 -3 17 -1 13 4 -3 5 4 9 15 9
11 0 25 8 30 18 8 15 4 17 -42 13 l-52 -5 40 -7 c22 -3 36 -7 30 -8 -5 -1 -29
-6 -53 -10 -35 -7 -40 -6 -31 5 8 10 8 15 -2 17 -8 3 -36 11 -64 20 -27 9 -65
19 -82 22 -20 4 -33 13 -33 21 0 9 -4 13 -9 9 -5 -3 -17 2 -25 11 -12 11 -16
12 -16 2 0 -11 -2 -10 -9 0 -5 8 -20 15 -35 15 -14 1 -26 5 -26 10 0 4 -4 7
-10 7 -5 0 -10 -11 -10 -25z"/>
<path d="M2064 1473 c7 -7 108 -5 115 3 2 2 -24 4 -59 4 -35 0 -60 -3 -56 -7z"/>
<path d="M2002 1408 c3 -7 15 -14 29 -15 14 -1 17 0 7 3 -10 3 -18 10 -18 15
0 5 -5 9 -11 9 -6 0 -9 -6 -7 -12z"/>
<path d="M2078 1393 c7 -3 16 -2 19 1 4 3 -2 6 -13 5 -11 0 -14 -3 -6 -6z"/>
<path d="M2175 1379 c-4 -6 -5 -12 -2 -15 2 -3 7 2 10 11 7 17 1 20 -8 4z"/>
<path d="M2040 1300 c-18 -12 -2 -12 25 0 13 6 15 9 5 9 -8 0 -22 -4 -30 -9z"/>
<path d="M2065 1200 c-3 -5 -1 -10 4 -10 6 0 11 5 11 10 0 6 -2 10 -4 10 -3 0
-8 -4 -11 -10z"/>
<path d="M3363 572 c-17 -11 -43 -98 -43 -147 0 -22 8 -56 18 -75 14 -28 22
-34 42 -32 46 5 55 25 55 120 0 113 -27 163 -72 134z"/>
<path d="M3124 474 c-9 -20 -24 -49 -35 -64 -18 -24 -19 -32 -9 -71 15 -56 26
-69 59 -69 35 0 51 17 51 53 0 16 5 47 11 67 13 43 7 81 -17 104 -25 25 -44
19 -60 -20z"/>
<path d="M5297 4461 c3 -12 9 -21 14 -21 14 0 11 16 -5 29 -12 10 -13 8 -9 -8z"/>
<path d="M5360 4455 c0 -5 6 -16 14 -24 19 -23 46 -108 46 -147 0 -18 5 -36
10 -39 18 -11 5 80 -22 157 -10 26 -48 69 -48 53z"/>
<path d="M5232 4268 c-12 -46 -40 -173 -62 -283 -23 -110 -43 -206 -45 -212
-3 -7 0 -13 6 -13 5 0 11 6 13 13 2 6 14 42 25 79 12 36 27 105 33 152 8 59
16 86 25 86 16 0 18 57 2 62 -11 4 -1 60 27 146 16 50 17 52 5 52 -4 0 -18
-37 -29 -82z"/>
<path d="M4200 4230 c-12 -8 -10 -10 10 -10 14 -1 39 -7 55 -15 28 -12 23 -13
-60 -12 -66 2 -102 -3 -137 -16 -67 -26 -60 -40 7 -16 68 24 88 24 174 0 95
-26 122 -43 172 -102 60 -71 129 -152 141 -164 16 -16 -31 76 -66 127 -17 26
-36 48 -42 48 -6 0 -20 18 -33 40 -17 31 -19 38 -7 34 30 -11 16 13 -21 39
-58 39 -165 65 -193 47z"/>
<path d="M5426 4098 c-3 -51 -8 -160 -11 -243 -3 -82 -8 -184 -12 -225 -4 -41
-7 -102 -8 -135 0 -33 -4 -63 -9 -67 -5 -3 -9 -27 -10 -52 -1 -25 -4 -46 -9
-46 -4 0 -5 -11 -3 -25 3 -14 0 -25 -5 -25 -6 0 -7 -4 -4 -10 3 -5 2 -10 -4
-10 -9 0 -16 -25 -25 -83 -1 -9 -8 -23 -14 -29 -7 -7 -12 -18 -12 -25 0 -26
-59 -129 -123 -215 -36 -49 -64 -88 -62 -88 3 0 21 15 42 33 l37 32 -21 -30
c-29 -42 -60 -68 -71 -61 -5 3 -15 -1 -22 -9 -7 -8 -9 -15 -5 -15 4 0 2 -7 -5
-15 -7 -9 -19 -14 -27 -11 -8 3 -12 2 -9 -3 3 -4 -3 -16 -14 -26 -11 -10 -20
-14 -20 -9 0 5 -5 1 -11 -9 -7 -11 -18 -15 -32 -12 -13 3 -34 -3 -52 -15 -16
-11 -25 -20 -19 -20 5 0 19 7 30 15 10 8 26 15 34 15 10 0 9 -4 -5 -14 -41
-28 -114 -66 -129 -66 -16 0 -31 -18 -23 -27 7 -7 77 16 77 26 0 6 27 19 98
46 37 13 191 138 213 172 8 12 39 59 70 105 55 82 91 166 105 243 3 22 19 96
35 165 15 69 33 165 39 213 13 109 22 647 10 647 -4 0 -11 -42 -14 -92z"/>
<path d="M356 4132 c-9 -15 -11 -66 -2 -80 17 -28 32 -12 28 31 -4 44 -15 66
-26 49z"/>
<path d="M4440 4131 c0 -5 5 -13 10 -16 6 -3 10 -2 10 4 0 5 -4 13 -10 16 -5
3 -10 2 -10 -4z"/>
<path d="M4484 4073 c16 -33 36 -52 36 -34 0 5 -11 23 -26 38 l-25 28 15 -32z"/>
<path d="M5220 4064 c0 -8 5 -12 10 -9 6 3 10 10 10 16 0 5 -4 9 -10 9 -5 0
-10 -7 -10 -16z"/>
<path d="M381 3996 c-9 -11 -9 -25 1 -58 7 -24 11 -53 10 -65 -2 -13 1 -23 6
-23 17 0 20 36 6 70 -17 40 -18 67 -2 72 8 3 9 6 1 11 -6 4 -16 0 -22 -7z"/>
<path d="M4570 3868 c0 -9 5 -20 10 -23 13 -8 13 5 0 25 -8 13 -10 13 -10 -2z"/>
<path d="M5105 3708 c-10 -24 -33 -76 -52 -117 -39 -86 -37 -108 3 -29 14 29
30 55 35 56 5 2 9 12 9 22 0 10 4 21 10 25 5 3 7 12 4 20 -3 7 0 23 6 35 6 12
10 24 7 26 -2 2 -12 -15 -22 -38z"/>
<path d="M5082 3558 c-23 -45 -60 -108 -71 -122 -9 -10 -10 -20 -3 -33 9 -15
15 -7 40 47 41 92 53 122 49 126 -2 2 -9 -6 -15 -18z"/>
<path d="M4944 3351 c-22 -28 -44 -50 -49 -51 -12 0 -50 -60 -39 -60 11 0 84
77 84 89 0 6 6 11 13 11 8 0 20 11 27 25 24 45 3 37 -36 -14z"/>
<path d="M720 3357 c0 -11 57 -94 70 -102 26 -16 6 30 -30 67 -22 24 -40 39
-40 35z"/>
<path d="M4810 3254 c-30 -25 -82 -64 -115 -85 -33 -21 -56 -39 -52 -39 16 0
94 44 137 78 39 31 98 92 88 92 -2 0 -28 -21 -58 -46z"/>
<path d="M4428 3193 c7 -3 16 -2 19 1 4 3 -2 6 -13 5 -11 0 -14 -3 -6 -6z"/>
<path d="M440 3041 c-15 -29 -12 -68 5 -75 8 -3 15 -14 15 -26 0 -30 137 -245
170 -265 6 -3 7 -11 4 -17 -6 -9 72 -98 87 -98 4 0 5 9 2 20 -7 25 5 25 35 1
22 -19 29 -32 15 -30 -42 7 -41 -4 6 -41 28 -22 57 -40 65 -40 8 0 38 -16 67
-35 52 -34 94 -49 54 -19 -11 8 -28 21 -37 28 -9 8 -27 20 -40 27 -13 7 -36
25 -52 40 -25 24 -26 28 -9 25 11 -3 40 -14 63 -26 23 -12 45 -19 48 -16 3 3
1 6 -4 6 -6 0 -19 8 -30 18 -10 10 -37 31 -59 47 -22 16 -64 51 -93 77 -30 27
-58 48 -63 48 -5 0 -9 6 -9 14 0 14 -56 106 -82 136 -7 8 -17 22 -23 31 -5 9
-21 35 -35 58 -14 22 -31 41 -37 41 -7 0 -13 5 -13 10 0 6 -9 20 -19 32 -11
11 -17 26 -14 34 8 21 -5 17 -17 -5z"/>
<path d="M4186 2999 c-43 -5 -81 -11 -84 -14 -10 -9 162 7 173 16 6 6 6 9 0 8
-6 -1 -45 -5 -89 -10z"/>
<path d="M1048 2403 c7 -3 16 -2 19 1 4 3 -2 6 -13 5 -11 0 -14 -3 -6 -6z"/>
<path d="M1057 2349 c7 -7 15 -10 18 -7 3 3 -2 9 -12 12 -14 6 -15 5 -6 -5z"/>
</g>
</svg>
